<?xml version="1.0" encoding="UTF-8" standalone="no"?>
<!-- Created with Inkscape (http://www.inkscape.org/) -->

<svg
   width="277.36798mm"
   height="76.764442mm"
   viewBox="0 0 277.36798 76.764442"
   version="1.1"
   id="svg1"
   xml:space="preserve"
   inkscape:export-filename="bitmap.svg"
   inkscape:export-xdpi="96"
   inkscape:export-ydpi="96"
   xmlns:inkscape="http://www.inkscape.org/namespaces/inkscape"
   xmlns:sodipodi="http://sodipodi.sourceforge.net/DTD/sodipodi-0.dtd"
   xmlns="http://www.w3.org/2000/svg"
   xmlns:svg="http://www.w3.org/2000/svg"><sodipodi:namedview
     id="namedview1"
     pagecolor="#ffffff"
     bordercolor="#000000"
     borderopacity="0.25"
     inkscape:showpageshadow="2"
     inkscape:pageopacity="0.0"
     inkscape:pagecheckerboard="0"
     inkscape:deskcolor="#d1d1d1"
     inkscape:document-units="mm"><inkscape:page
       x="0"
       y="0"
       width="277.36798"
       height="76.764442"
       id="page2"
       margin="28.470533 146.632 57.109333 227.02933"
       bleed="0"
       inkscape:export-filename="Página 3.svg"
       inkscape:export-xdpi="96"
       inkscape:export-ydpi="96" /><inkscape:page
       x="565.31934"
       y="0"
       width="277.36798"
       height="79.191559"
       id="page4"
       margin="37.595066 223.532 17.084 227.02933"
       bleed="0" /></sodipodi:namedview><defs
     id="defs1" /><g
     id="layer-MC0"
     inkscape:groupmode="layer"
     inkscape:label="Capa 1"
     transform="matrix(0.26458334,0,0,0.26458334,5.408353e-6,0)"><path
       id="path1"
       d="M -4.7216437,-4.2252885e-4 28.958044,-67.863251 h 27.492187 l 9.09375,67.86282847115 H 41.766638 L 41.614294,-8.7444224 H 24.633825 L 21.317419,-4.2252885e-4 Z M 30.96195,-24.730097 H 40.969763 L 40.161169,-49.50672 Z m 80.66895,-0.598583 c -3.6504,2.943031 -7.09864,4.413079 -10.34766,4.413079 -3.556642,0 -6.503907,-1.188362 -8.847657,-3.568021 -2.34375,-2.376725 -3.515625,-5.375506 -3.515625,-8.990475 0,-2.549844 0.621094,-4.897227 1.863281,-7.042148 1.265625,-2.141986 3.005859,-3.852641 5.226563,-5.129031 2.24121,-1.267586 4.716798,-1.901379 7.429688,-1.901379 3.52148,0 7.25976,1.508193 11.21484,4.518711 l 4.06641,-23.07477 c -5.85938,-2.347383 -11.70703,-3.521074 -17.54297,-3.521074 -4.921875,0 -9.621093,0.865597 -14.097656,2.593858 -4.470703,1.731194 -8.282226,4.301578 -11.4375,7.711151 -2.507812,2.482357 -4.661133,5.305085 -6.457031,8.474051 -1.790039,3.168967 -3.152344,6.522789 -4.089844,10.058534 -0.9375,3.529877 -1.40625,7.106701 -1.40625,10.727538 0,6.032773 1.303711,11.478701 3.914063,16.337783 2.583984,4.8297392 6.169921,8.6002224 10.757812,11.3143834 4.59375,2.70535834 9.720703,4.0609717 15.386719,4.0609717 3.544922,0 7.933597,-0.68660934 13.160157,-2.05395966 z m 43.04589,-44.189476 c -5.90039,0 -11.36132,1.006441 -16.38281,3.016387 -5.02441,1.980604 -9.37207,4.797463 -13.04297,8.450577 -3.67383,3.647245 -6.51269,7.992837 -8.51953,13.03971 -2.00976,5.041004 -3.01172,10.4928 -3.01172,16.361256 0,4.454158 0.77637,8.541538 2.33203,12.265074 1.56153,3.717667 3.79981,6.9247779 6.71485,9.6242678 2.91211,2.6994899 6.37793,4.7769234 10.39453,6.23230061 4.02246,1.45537715 8.41406,2.18306569 13.17187,2.18306569 5.79493,0 11.19141,-0.9947033 16.1836,-2.9811758 4.99218,-1.9952751 9.33984,-4.8356079 13.04297,-8.5209985 3.70312,-3.6912588 6.55078,-8.0221798 8.54296,-12.9927618 1.99805,-4.976451 3,-10.363694 3,-16.161729 0,-9.286832 -2.53125,-16.458086 -7.59375,-21.513761 -2.75097,-2.784582 -6.35742,-4.979385 -10.8164,-6.584408 -4.45313,-1.610891 -9.12598,-2.417804 -14.01563,-2.417804 z m -2.0625,21.971501 c 2.98243,0 5.2793,0.924281 6.89063,2.769911 1.6084,1.839761 2.41406,4.44829 2.41406,7.828521 0,2.951833 -0.62109,5.715876 -1.86328,8.297997 -1.23633,2.543976 -2.91211,4.571527 -5.02734,6.079721 -2.08008,1.511127 -4.32129,2.265224 -6.72657,2.265224 -2.71875,0 -4.96582,-0.953624 -6.73828,-2.863807 -1.74316,-1.877906 -2.61328,-4.307447 -2.61328,-7.288623 0,-3.051597 0.60938,-5.89193 1.82813,-8.520998 1.22461,-2.629069 2.89453,-4.712371 5.0039,-6.255775 2.10938,-1.540469 4.38574,-2.312171 6.83203,-2.312171 z M 182.69632,-4.2252885e-4 194.40336,-67.863251 h 32.12109 c 3.61523,0 6.88184,0.469476 9.79687,1.408429 2.95313,0.97123 5.43165,2.364988 7.44141,4.178341 2.00684,1.778143 3.54492,3.972945 4.61719,6.584408 1.07812,2.582121 1.61719,5.498744 1.61719,8.744 0,3.051597 -0.48926,6.032773 -1.46485,8.943528 -0.96972,2.88728 -2.35254,5.522217 -4.14844,7.898942 -1.79003,2.379659 -3.85546,4.304512 -6.19921,5.774561 -4.05469,2.58212 -9.65332,3.873181 -16.79297,3.873181 H 210.78617 L 207.07132,-4.2252885e-4 Z M 213.65726,-38.603128 h 4.01953 c 2.37305,0 4.30664,-0.592714 5.80078,-1.784011 1.49122,-1.188362 2.23829,-2.722963 2.23829,-4.600869 0,-3.550416 -2.16211,-5.328559 -6.48047,-5.328559 h -3.07032 z M 243.2266,-4.2252885e-4 255.17972,-67.863251 h 24.58594 L 267.80082,-4.2252885e-4 Z m 0,0"
       style="fill:#becd3b;fill-opacity:1;fill-rule:nonzero;stroke:none"
       aria-label="ACOPI"
       transform="matrix(1.3333333,0,0,1.33127,233.3424,233.024)" /><path
       id="path2"
       d="M 1.0539423,-30.715923 H 6.9367548 L 1.4523798,-4.2252885e-4 H 23.823474 L 29.155505,-30.715923 h 7.734375 l 3.269531,-17.487999 h -7.59375 l 2.367188,-13.473976 H 12.468005 l -2.367188,13.473976 H 4.3234736 Z M 33.359606,-4.2252885e-4 H 55.625231 L 59.2932,-20.704336 c 0.632813,-3.418376 1.666992,-5.897799 3.105469,-7.441203 1.444336,-1.54047 3.439453,-2.312172 5.988281,-2.312172 1.810547,0 4.306641,0.604451 7.488281,1.807485 l 3.363282,-19.354169 c -1.541016,-0.399055 -3.079102,-0.598583 -4.617188,-0.598583 -5.666015,0 -10.289062,2.916623 -13.875,8.744 l 1.40625,-8.344944 h -20.15625 z m 39.128907,0 H 94.402575 L 103.03929,-48.203922 H 80.926013 Z M 95.8557,-74.447659 c -2.375976,0 -4.652344,0.595648 -6.832031,1.784011 -2.179688,1.191296 -3.925781,2.758174 -5.238281,4.706502 -1.306641,1.942459 -1.957032,4.034563 -1.957032,6.279248 0,2.379659 0.518555,4.389605 1.558594,6.032773 1.03711,1.643168 2.405274,2.869675 4.101563,3.673654 1.693359,0.79811 3.530273,1.197165 5.507812,1.197165 2.34375,0 4.611328,-0.507622 6.808594,-1.525799 2.194331,-1.024046 3.996091,-2.505831 5.402341,-4.44829 1.37403,-1.97767 2.0625,-4.23996 2.0625,-6.783935 0,-3.122019 -1.07519,-5.718811 -3.22265,-7.79331 -2.14161,-2.080368 -4.872074,-3.122019 -8.19141,-3.122019 z M 98.006091,-4.2252885e-4 106.54906,-48.203922 h 21.01172 l -1.16016,6.38488 c 2.17969,-2.887281 4.38281,-4.923635 6.60938,-6.114931 2.22656,-1.188363 4.99804,-1.784011 8.32031,-1.784011 5.0918,0 8.83594,1.710655 11.22656,5.129031 2.39649,3.42131 3.59766,7.64073 3.59766,12.664128 0,2.112645 -0.19922,4.210618 -0.59766,6.290985 L 150.8225,-4.2252885e-4 H 128.2639 L 132.68187,-24.331042 c 0.26367,-0.968296 0.39844,-1.989407 0.39844,-3.063334 0,-2.878478 -0.99023,-4.319184 -2.96484,-4.319184 -1.50879,0 -2.70704,0.669004 -3.59766,2.007012 -0.88477,1.338008 -1.59375,3.518139 -2.13281,6.53746 l -4.32422,23.16866547115 z m 89.783199,0 h 22.125 L 218.45726,-48.203922 h -22.01953 l -1.2539,6.38488 c -1.94532,-2.981176 -3.90821,-5.041004 -5.88282,-6.185353 -1.94531,-1.141415 -4.50879,-1.713589 -7.6875,-1.713589 -4.6582,0 -8.92968,1.379087 -12.82031,4.131393 -3.88477,2.746438 -6.9668,6.499315 -9.24609,11.255699 -2.24414,4.788661 -3.36328,10.052666 -3.36328,15.786148 0,4.21942 0.66796,7.837323 2.0039,10.8566437 1.37402,3.0457288 3.35156,5.3579006 5.92969,6.93651537 2.61621,1.60208856 5.69824,2.40606703 9.24609,2.40606703 3.28711,0 6.00293,-0.5222926 8.14453,-1.56100933 2.14746,-1.03284831 4.47657,-2.99291267 6.98438,-5.88019317 z M 185.73851,-30.258183 c 1.66992,0 2.88867,0.487082 3.65625,1.455377 0.77344,0.97123 1.16016,2.227079 1.16016,3.767549 0,2.083302 -0.60645,3.961208 -1.81641,5.633718 -1.2041,1.675444 -2.75976,2.511699 -4.66406,2.511699 -1.64062,0 -2.87109,-0.498819 -3.69141,-1.502325 -0.82031,-1.009374 -1.23046,-2.300434 -1.23046,-3.873181 0,-1.907248 0.61523,-3.720601 1.85156,-5.43419 1.27148,-1.704787 2.85058,-2.558647 4.73437,-2.558647 z m 0,0"
       style="fill:#a6a8ac;fill-opacity:1;fill-rule:nonzero;stroke:none"
       aria-label="trina"
       transform="matrix(1.3333333,0,0,1.33127,597.29006,233.024)" /><path
       id="path3"
       d="m 0,0 c -1.771,-2.175 -3.104,-4.617 -4.474,-7.025 -3.496,-6.15 -6.304,-12.603 -8.852,-19.165 -0.125,-0.322 -0.271,-0.637 -0.406,-0.955 -1.745,-4.094 -3.171,-8.299 -4.715,-12.463 -1.571,-4.369 -3.075,-8.758 -6.142,-12.45 -3.901,-4.698 -8.989,-7.714 -14.72,-9.856 -1.266,-0.473 -2.519,-0.981 -3.785,-1.457 -0.296,-0.111 -0.617,-0.219 -0.927,-0.22 -4.292,-0.014 -8.583,-0.01 -13.069,-0.01 2.355,2.415 4.09,5.095 6.076,7.593 4.552,5.726 9.629,10.943 15.716,15.187 0.695,0.485 1.42,0.93 2.13,1.394 0.202,0.132 0.495,0.219 0.449,0.516 -0.044,0.287 -0.347,0.313 -0.573,0.396 -1.59,0.581 -3.23,0.854 -4.937,0.839 -1.713,-0.015 -3.431,-0.116 -5.139,0.197 -0.914,0.167 -0.988,0.457 -0.537,1.227 4.125,7.045 9.636,13.007 15.572,18.639 2.78,2.638 5.593,5.244 8.386,7.87 0.221,0.208 0.5,0.392 0.524,0.744 -0.29,0.167 -0.482,-0.066 -0.671,-0.178 -12.575,-7.502 -24.456,-15.867 -34.797,-26.136 -1.893,-1.88 -3.747,-3.799 -5.615,-5.705 -0.631,-0.643 -0.982,-1.377 -0.584,-2.258 0.424,-0.936 1.223,-1.333 2.25,-1.253 0.818,0.063 1.632,0.186 2.442,0.318 0.604,0.098 1.21,0.184 1.813,0.082 1.105,-0.186 1.728,-1.217 1.047,-1.969 -2.077,-2.297 -2.714,-5.308 -4.352,-7.81 -0.515,-0.787 -1.004,-1.596 -1.587,-2.335 -2.15,-2.724 -4.478,-2.985 -7.292,-0.867 -1.155,0.869 -1.982,1.977 -2.605,3.241 -0.962,2.188 -1.169,4.515 -1.281,6.845 -0.117,2.431 -0.019,4.858 0.46,7.257 0.508,2.522 1.4,4.919 2.559,7.228 3.256,6.338 8.015,11.458 13.756,15.779 6.897,5.191 14.589,8.925 22.863,11.584 2.237,0.719 4.492,1.385 6.738,2.075 4.417,1.226 8.895,2.196 13.417,2.987 2.943,0.444 5.901,0.789 8.844,1.231 0.667,0.1 1.339,0.181 2.018,0.126 z"
       style="fill:#becd3b;fill-opacity:1;fill-rule:nonzero;stroke:none"
       transform="matrix(1.3333333,0,0,-1.3333333,654.94773,58.791067)" /><path
       id="path4"
       d="m 0,0 -3.502,-8.067 c -1.426,-3.286 -4.29,-5.35 -7.413,-5.342 l -50.74,0.124 c -6.202,0.015 -10.198,7.767 -7.366,14.29 2.285,5.099 4.78,13.963 10.915,13.41 l 50.74,-0.124 C -1.164,14.275 2.831,6.524 0,0 Z"
       style="fill:none;stroke:#b1c52b;stroke-width:2;stroke-linecap:butt;stroke-linejoin:miter;stroke-miterlimit:10;stroke-dasharray:none;stroke-opacity:1"
       transform="matrix(1.3333333,0,0,-1.3333333,899.11827,151.24027)" /><path
       id="path5"
       d="M -0.56152969,-8.7635683e-4 1.9580016,-14.308184 h 5.1445312 l 2.3671875,7.1243115 1.3007817,-7.1243115 h 5.191406 L 13.418939,-8.7635683e-4 H 8.3564391 L 5.8603453,-7.3129787 4.6181578,-8.7635683e-4 Z m 19.07519569,0 L 21.056634,-14.308184 h 9.328125 l -0.691406,3.779289 h -4.101562 l -0.304688,1.7488011 h 3.949219 l -0.679688,3.7792888 -3.972656,0.011737 -0.855469,4.98819184317 z m 0,0"
       style="fill:#000000;fill-opacity:1;fill-rule:nonzero;stroke:none"
       aria-label="NF"
       transform="matrix(1.3333333,0,0,1.331269,833.7448,160.18867)" /><path
       id="path9"
       d="M -4.7221438,0.00140217 28.957544,-67.861426 h 27.492187 l 9.09375,67.86282817 H 41.766137 L 41.613794,-8.7425977 H 24.633325 L 21.316919,0.00140217 Z M 30.96145,-24.728273 h 10.007812 l -0.808593,-24.776622 z m 80.66895,-0.598582 c -3.6504,2.943031 -7.09864,4.413079 -10.34766,4.413079 -3.556642,0 -6.503907,-1.188362 -8.847657,-3.568021 -2.34375,-2.376725 -3.515625,-5.375506 -3.515625,-8.990475 0,-2.549845 0.621094,-4.897227 1.863281,-7.042148 1.265625,-2.141987 3.005859,-3.852642 5.226563,-5.129031 2.24121,-1.267586 4.716798,-1.90138 7.429688,-1.90138 3.52148,0 7.25976,1.508194 11.21484,4.518712 l 4.06641,-23.07477 c -5.85938,-2.347383 -11.70703,-3.521074 -17.54297,-3.521074 -4.921875,0 -9.621093,0.865597 -14.097656,2.593857 -4.470703,1.731195 -8.282227,4.301579 -11.4375,7.711152 -2.507812,2.482357 -4.661133,5.305084 -6.457031,8.474051 -1.790039,3.168966 -3.152344,6.522789 -4.089844,10.058534 -0.9375,3.529876 -1.40625,7.106701 -1.40625,10.727538 0,6.032773 1.303711,11.478701 3.914063,16.337782 2.583984,4.8297399 6.169921,8.6002231 10.757812,11.3143841 4.59375,2.70535834 9.720703,4.0609717 15.386719,4.0609717 3.544922,0 7.933597,-0.68660934 13.160157,-2.05395966 z m 43.04589,-44.189476 c -5.90039,0 -11.36132,1.00644 -16.38281,3.016387 -5.02441,1.980604 -9.37207,4.797463 -13.04297,8.450577 -3.67383,3.647245 -6.51269,7.992837 -8.51953,13.039709 -2.00976,5.041004 -3.01172,10.4928 -3.01172,16.361257 0,4.454158 0.77637,8.541538 2.33203,12.265073 1.56153,3.717667 3.79981,6.9247786 6.71485,9.6242685 2.91211,2.6994899 6.37793,4.7769234 10.39453,6.2323006 4.02246,1.45537716 8.41406,2.1830657 13.17187,2.1830657 5.79493,0 11.19141,-0.9947033 16.1836,-2.9811758 4.99218,-1.9952751 9.33984,-4.8356079 13.04297,-8.5209985 3.70312,-3.6912585 6.55078,-8.0221795 8.54296,-12.9927625 1.99805,-4.976451 3,-10.363694 3,-16.161728 0,-9.286832 -2.53125,-16.458086 -7.59375,-21.513761 -2.75097,-2.784583 -6.35742,-4.979385 -10.8164,-6.584408 -4.45313,-1.610891 -9.12598,-2.417804 -14.01563,-2.417804 z m -2.0625,21.9715 c 2.98243,0 5.2793,0.924282 6.89063,2.769912 1.6084,1.839761 2.41406,4.44829 2.41406,7.82852 0,2.951834 -0.62109,5.715877 -1.86328,8.297998 -1.23633,2.543975 -2.91211,4.571527 -5.02734,6.07972 -2.08008,1.511128 -4.32129,2.265224 -6.72657,2.265224 -2.71875,0 -4.96582,-0.953624 -6.73828,-2.863806 -1.74316,-1.877906 -2.61328,-4.307447 -2.61328,-7.288623 0,-3.051597 0.60938,-5.89193 1.82813,-8.520998 1.22461,-2.629069 2.89453,-4.712371 5.0039,-6.255775 2.10938,-1.54047 4.38574,-2.312172 6.83203,-2.312172 z M 182.69582,0.00140217 194.40286,-67.861426 h 32.12109 c 3.61523,0 6.88184,0.469476 9.79687,1.408429 2.95313,0.97123 5.43165,2.364988 7.44141,4.178341 2.00684,1.778142 3.54492,3.972945 4.61719,6.584408 1.07812,2.582121 1.61719,5.498744 1.61719,8.744 0,3.051597 -0.48926,6.032773 -1.46485,8.943527 -0.96972,2.887281 -2.35254,5.522218 -4.14844,7.898942 -1.79003,2.379659 -3.85546,4.304513 -6.19921,5.774561 -4.05469,2.582121 -9.65332,3.873182 -16.79297,3.873182 H 210.78567 L 207.07082,0.00140217 Z M 213.65676,-38.601303 h 4.01953 c 2.37305,0 4.30664,-0.592714 5.80078,-1.784011 1.49122,-1.188362 2.23829,-2.722964 2.23829,-4.60087 0,-3.550416 -2.16211,-5.328558 -6.48047,-5.328558 h -3.07032 z M 243.2261,0.00140217 255.17922,-67.861426 h 24.58594 L 267.80032,0.00140217 Z m 0,0"
       style="fill:#becd3b;fill-opacity:1;fill-rule:nonzero;stroke:none"
       aria-label="ACOPI"
       transform="matrix(1.3333333,0,0,1.33127,2369.9831,192.99813)" /><path
       id="path10"
       d="M 3.7135986,-48.202098 15.783911,0.00140217 H 33.069067 L 61.26438,-48.202098 h -23.0625 l -10.3125,24.729675 -1.40625,-24.729675 z M 84.537817,0.00140217 H 106.66282 L 115.20579,-48.202098 H 93.186255 l -1.253906,6.384881 c -1.945313,-2.981176 -3.908204,-5.041004 -5.882813,-6.185353 -1.945312,-1.141415 -4.508789,-1.71359 -7.6875,-1.71359 -4.658203,0 -8.929687,1.379088 -12.820312,4.131394 -3.884766,2.746437 -6.966797,6.499315 -9.246094,11.255699 -2.244141,4.78866 -3.363281,10.052666 -3.363281,15.786147 0,4.21942 0.667968,7.837324 2.003906,10.8566444 1.374023,3.0457288 3.351562,5.3579006 5.929687,6.93651536 2.616211,1.60208857 5.698243,2.40606704 9.246094,2.40606704 3.287109,0 6.00293,-0.5222926 8.144531,-1.56100933 2.147461,-1.03284831 4.476563,-2.99291267 6.984375,-5.88019317 z M 82.487036,-30.256358 c 1.669922,0 2.888672,0.487081 3.65625,1.455377 0.773438,0.971229 1.160156,2.227079 1.160156,3.767549 0,2.083302 -0.606445,3.961208 -1.816406,5.633718 -1.204101,1.675444 -2.759766,2.511699 -4.664062,2.511699 -1.640625,0 -2.871094,-0.498819 -3.691407,-1.502325 -0.820312,-1.009374 -1.230468,-2.300435 -1.230468,-3.873181 0,-1.907248 0.615234,-3.720601 1.851562,-5.434191 1.271484,-1.704786 2.850586,-2.558646 4.734375,-2.558646 z m 23.815434,49.00161 12.11718,-66.94735 h 21.41016 l -0.90234,6.185353 c 4.14843,-5.131965 8.98828,-7.699415 14.51953,-7.699415 3.42187,0 6.40429,0.856795 8.95312,2.570384 2.5459,1.707721 4.49414,4.172473 5.84766,7.394255 1.35937,3.215914 2.03906,7.001069 2.03906,11.349595 0,4.225288 -0.59473,8.157154 -1.78125,11.795597 -1.18945,3.632574 -2.87988,6.830883 -5.07422,9.6007944 -2.19726,2.7640429 -4.76953,4.900161 -7.72265,6.40835423 -2.94727,1.50232481 -6.14649,2.25348717 -9.59766,2.25348717 -3.25195,0 -5.8125,-0.5369637 -7.6875,-1.60795698 C 136.50754,-1.05492 134.81711,-2.997379 133.34934,-5.7848957 L 128.8259,18.745252 Z m 35.88281,-48.802083 c -1.875,0 -3.4336,0.806913 -4.67578,2.417804 -1.23633,1.605023 -1.85157,3.362626 -1.85157,5.269874 0,1.543404 0.4336,2.834464 1.30079,3.873181 0.90527,1.073927 2.17968,1.607957 3.82031,1.607957 1.94531,0 3.5039,-0.803979 4.67578,-2.417804 1.20996,-1.572746 1.81641,-3.347954 1.81641,-5.328558 0,-1.572747 -0.43946,-2.878478 -1.3125,-3.920129 -0.83789,-1.000572 -2.09473,-1.502325 -3.77344,-1.502325 z m 0,0"
       style="fill:#a6a8ac;fill-opacity:1;fill-rule:nonzero;stroke:none"
       aria-label="vap"
       transform="matrix(1.3333333,0,0,1.33127,2733.9307,192.99813)" /><path
       id="path11"
       d="m -3.5268937,11.555184 7.4648437,-41.25 h 13.183594 l -0.550781,3.808594 c 2.554687,-3.164062 5.534179,-4.746094 8.941406,-4.746094 2.109375,0 3.949219,0.527344 5.519531,1.582032 1.570313,1.054687 2.771484,2.575195 3.609375,4.558593 0.834961,1.977539 1.253906,4.309571 1.253906,6.996094 0,2.601563 -0.36914,5.024414 -1.101562,7.265625 -0.735352,2.2353517 -1.778321,4.2041017 -3.128906,5.9062501 -1.353516,1.7050781 -2.938477,3.0205078 -4.757813,3.94921877 -1.813477,0.92871094 -3.782227,1.39453123 -5.90625,1.39453123 -2.009766,0 -3.591797,-0.32812498 -4.746094,-0.98437498 C 15.082481,-0.64989375 14.039513,-1.8510656 13.12545,-3.5620031 L 10.348106,11.555184 Z M 18.586388,-18.515128 c -1.157227,0 -2.118165,0.498047 -2.882813,1.488281 -0.767578,0.984375 -1.148437,2.068359 -1.148437,3.246094 0,0.955078 0.269531,1.751953 0.808593,2.390625 0.553711,0.65625 1.338867,0.984375 2.355469,0.984375 1.195313,0 2.150391,-0.495117 2.871094,-1.488281 0.741211,-0.966797 1.113281,-2.0625 1.113281,-3.28125 0,-0.966797 -0.266602,-1.772461 -0.796875,-2.414063 -0.515625,-0.615234 -1.289062,-0.925781 -2.320312,-0.925781 z m 36.799804,-12.117188 c -3.55664,0 -6.782226,0.802735 -9.679687,2.402344 -2.900391,1.602539 -5.173828,3.817383 -6.820313,6.644531 -1.640625,2.830078 -2.460937,5.988282 -2.460937,9.480469 0,2.4785157 0.647461,4.7314454 1.945312,6.7617189 1.303711,2.0332031 3.111328,3.6210937 5.425781,4.76953122 2.311524,1.14550782 4.904297,1.72265628 7.78125,1.72265628 3.609375,0 6.873047,-0.76464846 9.796875,-2.2851563 2.920899,-1.5292969 5.194336,-3.6621094 6.820313,-6.3984375 1.631836,-2.7421876 2.449219,-5.8359376 2.449219,-9.2812496 0,-2.0625 -0.363282,-3.94043 -1.089844,-5.636719 -0.720703,-1.69336 -1.757813,-3.146485 -3.117188,-4.359375 -1.359375,-1.21875 -2.982421,-2.15918 -4.863281,-2.824219 -1.875,-0.662109 -3.9375,-0.996094 -6.1875,-0.996094 z m -1.148437,11.34375 c 0.905273,0 1.658203,0.351563 2.261718,1.054688 0.591797,0.679687 0.890625,1.517578 0.890625,2.507812 0,1.461914 -0.439453,2.715821 -1.3125,3.761719 -0.875976,1.040039 -1.933593,1.558594 -3.175781,1.558594 -1.095703,0 -1.916015,-0.319336 -2.460937,-0.960938 -0.547852,-0.638672 -0.820313,-1.464843 -0.820313,-2.472656 0,-1.318359 0.436524,-2.557617 1.3125,-3.714844 0.881836,-1.154297 1.983399,-1.734375 3.304688,-1.734375 z M 69.84127,-29.694816 74.856895,4.96875e-4 H 86.52877 L 93.196739,-16.569816 93.993614,4.96875e-4 H 105.30221 L 120.72408,-29.694816 h -14.08593 l -5.85938,15.105469 -0.67969,-15.105469 h -9.972653 l -6.011719,15.105469 -0.890625,-15.105469 z m 67.11035,18.914063 c -0.9082,1.5322264 -2.25879,2.2968749 -4.05469,2.2968749 -1.32128,0 -2.26757,-0.3427735 -2.83593,-1.03125 -0.57129,-0.6943359 -0.85547,-1.8574219 -0.85547,-3.4921879 h 19.85156 c 0.12305,-0.943359 0.1875,-1.851562 0.1875,-2.71875 0,-2.724609 -0.57422,-5.226562 -1.72266,-7.5 -1.14257,-2.273437 -2.79785,-4.072265 -4.96875,-5.402343 -2.16503,-1.335938 -4.66113,-2.003907 -7.48828,-2.003907 -3.46875,0 -6.6416,0.796875 -9.51562,2.390625 -2.86817,1.587891 -5.1211,3.758789 -6.76172,6.515625 -1.64063,2.759766 -2.46094,5.789063 -2.46094,9.09375 0,2.039063 0.36621,3.8994144 1.10156,5.5781254 0.73243,1.6728515 1.78125,3.1142578 3.14063,4.3242187 1.36523,1.2041016 3,2.13281252 4.89844,2.78906252 1.875,0.63867188 3.92871,0.96093748 6.16406,0.96093748 2.31152,0 4.53809,-0.40722654 6.67969,-1.21874998 2.14746,-0.82031252 4.04883,-1.97167972 5.70703,-3.45703122 1.64648,-1.5058594 2.90625,-3.2490235 3.77344,-5.2265625 z m -6.84375,-7.734375 c 0.24903,-1.092774 0.76465,-1.948242 1.54688,-2.566406 0.78808,-0.624024 1.64648,-0.9375 2.57812,-0.9375 1.91309,0 2.98242,1.168945 3.21094,3.503906 z M 148.23385,4.96875e-4 H 161.9565 L 164.21822,-12.761222 c 0.38965,-2.100586 1.02539,-3.624023 1.91016,-4.570312 0.89062,-0.952149 2.12109,-1.429688 3.69141,-1.429688 1.11621,0 2.65429,0.37207 4.61718,1.113281 l 2.07422,-11.929687 c -0.95508,-0.240235 -1.90429,-0.363281 -2.84765,-0.363281 -3.49219,0 -6.33985,1.792968 -8.54297,5.378906 l 0.86718,-5.132813 h -12.42187 z m 0,0"
       style="fill:#365192;fill-opacity:1;fill-rule:nonzero;stroke:none"
       aria-label="power"
       transform="matrix(1.3333333,0,0,1.3333333,2723.7644,244.0384)" /><path
       id="path12"
       d="m 0,0 c -1.771,-2.176 -3.104,-4.617 -4.475,-7.025 -3.496,-6.151 -6.304,-12.603 -8.851,-19.165 -0.126,-0.323 -0.272,-0.637 -0.407,-0.956 -1.745,-4.093 -3.171,-8.298 -4.715,-12.462 -1.57,-4.369 -3.074,-8.758 -6.142,-12.451 -3.901,-4.697 -8.988,-7.713 -14.719,-9.854 -1.267,-0.474 -2.52,-0.983 -3.786,-1.458 -0.295,-0.111 -0.617,-0.219 -0.926,-0.22 -4.292,-0.014 -8.584,-0.01 -13.07,-0.01 2.355,2.415 4.091,5.095 6.077,7.593 4.552,5.726 9.628,10.943 15.715,15.187 0.695,0.484 1.42,0.929 2.131,1.393 0.202,0.132 0.494,0.22 0.448,0.517 -0.044,0.287 -0.347,0.313 -0.573,0.395 -1.59,0.582 -3.229,0.855 -4.936,0.84 -1.714,-0.015 -3.432,-0.116 -5.139,0.197 -0.914,0.167 -0.989,0.457 -0.538,1.227 4.125,7.045 9.636,13.007 15.572,18.639 2.78,2.637 5.593,5.244 8.387,7.87 0.221,0.208 0.499,0.392 0.524,0.744 -0.291,0.167 -0.483,-0.066 -0.672,-0.179 -12.575,-7.501 -24.455,-15.866 -34.796,-26.135 -1.894,-1.88 -3.748,-3.799 -5.615,-5.705 -0.632,-0.643 -0.982,-1.378 -0.584,-2.258 0.423,-0.937 1.223,-1.333 2.249,-1.253 0.819,0.063 1.632,0.186 2.442,0.317 0.604,0.099 1.211,0.185 1.814,0.083 1.104,-0.186 1.727,-1.217 1.046,-1.97 -2.077,-2.297 -2.714,-5.307 -4.352,-7.809 -0.514,-0.787 -1.004,-1.596 -1.587,-2.335 -2.15,-2.725 -4.477,-2.985 -7.292,-0.867 -1.155,0.869 -1.982,1.977 -2.605,3.241 -0.961,2.188 -1.168,4.515 -1.28,6.845 -0.117,2.431 -0.02,4.858 0.459,7.256 0.508,2.523 1.401,4.919 2.56,7.229 3.255,6.338 8.015,11.458 13.755,15.779 6.897,5.191 14.59,8.925 22.863,11.584 2.237,0.719 4.492,1.385 6.738,2.075 4.417,1.226 8.895,2.196 13.417,2.987 2.943,0.443 5.901,0.789 8.844,1.231 0.667,0.1 1.339,0.181 2.019,0.126 z"
       style="fill:#becd3b;fill-opacity:1;fill-rule:nonzero;stroke:none"
       transform="matrix(1.3333333,0,0,-1.3333333,2793.0291,18.765067)" /></g></svg>
