<?xml version="1.0" encoding="UTF-8" standalone="no"?>
<!-- Created with Inkscape (http://www.inkscape.org/) -->

<svg
   width="277.36798mm"
   height="74.262192mm"
   viewBox="0 0 277.36798 74.262191"
   version="1.1"
   id="svg1"
   xml:space="preserve"
   inkscape:export-filename="bitmap.svg"
   inkscape:export-xdpi="96"
   inkscape:export-ydpi="96"
   xmlns:inkscape="http://www.inkscape.org/namespaces/inkscape"
   xmlns:sodipodi="http://sodipodi.sourceforge.net/DTD/sodipodi-0.dtd"
   xmlns="http://www.w3.org/2000/svg"
   xmlns:svg="http://www.w3.org/2000/svg"><sodipodi:namedview
     id="namedview1"
     pagecolor="#ffffff"
     bordercolor="#000000"
     borderopacity="0.25"
     inkscape:showpageshadow="2"
     inkscape:pageopacity="0.0"
     inkscape:pagecheckerboard="0"
     inkscape:deskcolor="#d1d1d1"
     inkscape:document-units="mm"><inkscape:page
       x="0"
       y="0"
       width="277.36798"
       height="74.262192"
       id="page3"
       margin="34.195999 236.40401 41.608002 320.38266"
       bleed="0" /></sodipodi:namedview><defs
     id="defs1" /><g
     id="layer-MC0"
     inkscape:groupmode="layer"
     inkscape:label="Capa 1"
     transform="matrix(0.26458334,0,0,0.26458334,-282.65967,0)"><path
       id="path6"
       d="M -2.6596422,-1.1736913e-4 9.2934828,-67.862946 H 33.87942 L 28.547389,-39.26009 46.945827,-67.862946 H 75.047389 L 49.805202,-33.473792 63.633327,-1.1736913e-4 H 36.844264 L 27.094264,-29.459768 21.914577,-1.1736913e-4 Z m 67.0136722,0 L 76.307155,-67.862946 H 100.89309 L 88.928248,-1.1736913e-4 Z m 27.36914,0 L 103.79348,-67.862946 h 24.57422 l -8.4375,47.358442 h 21.10547 l -3.82031,20.50438663087 z m 48.07324,0 L 151.86672,-67.862946 h 24.57422 l -8.4375,47.358442 h 21.10547 L 185.2886,-1.1736913e-4 Z m 0,0"
       style="fill:#324496;fill-opacity:1;fill-rule:nonzero;stroke:none"
       aria-label="KILL"
       transform="matrix(1.3333333,0,0,1.33127,1392.2685,217.84)" /><path
       id="path7"
       d="M 31.922086,-1.1736913e-4 32.765836,-5.7864153 c -2.578125,2.8872805 -4.930664,4.84734492 -7.054688,5.88019323 -2.126953,1.03871677 -4.833984,1.56100937 -8.121093,1.56100937 -3.585938,0 -6.679688,-0.79517582 -9.2812503,-2.38259325 C 5.7131016,-2.3240261 3.7443516,-4.6420663 2.4025547,-7.6877951 1.0666172,-10.739392 0.39864849,-14.357296 0.39864849,-18.544439 c 0,-5.733482 1.12792971,-10.988685 3.38671871,-15.762674 2.2646485,-4.771055 5.3496094,-8.532735 9.2578128,-11.279173 3.905273,-2.752306 8.170898,-4.131393 12.796875,-4.131393 3.146484,0 5.709961,0.572174 7.6875,1.713589 1.974609,1.144349 3.952148,3.204177 5.929687,6.185353 l 5.226563,-31.067607 H 67.195523 L 54.129117,-1.1736913e-4 Z M 30.152555,-30.257878 c -1.907227,0 -3.480469,0.830387 -4.722657,2.488225 -1.236328,1.660774 -1.851562,3.459455 -1.851562,5.39898 0,1.572747 0.410156,2.881412 1.230469,3.920129 0.820312,1.041651 1.983398,1.561009 3.492187,1.561009 1.945313,0 3.527344,-0.859728 4.746094,-2.58212 1.224609,-1.728261 1.839844,-3.614969 1.839844,-5.657192 0,-1.478851 -0.395508,-2.702424 -1.183594,-3.673654 -0.791016,-0.968295 -1.974609,-1.455377 -3.550781,-1.455377 z M 91.538297,-1.1736913e-4 H 113.6633 L 122.20627,-48.203617 h -22.01954 l -1.253902,6.38488 c -1.945312,-2.981176 -3.908203,-5.041004 -5.882812,-6.185353 -1.945313,-1.141415 -4.508789,-1.713589 -7.6875,-1.713589 -4.658203,0 -8.929688,1.379087 -12.820313,4.131393 -3.884765,2.746438 -6.966797,6.499316 -9.246094,11.255699 -2.24414,4.788661 -3.363281,10.052666 -3.363281,15.786148 0,4.21942 0.667969,7.837323 2.003906,10.8566439 1.374024,3.0457288 3.351563,5.3579006 5.929688,6.93651533 2.616211,1.60208856 5.698242,2.40606707 9.246094,2.40606707 3.287109,0 6.002929,-0.5222926 8.144531,-1.56100937 2.147461,-1.03284831 4.476562,-2.99291273 6.984375,-5.88019323 z M 89.487516,-30.257878 c 1.669922,0 2.888672,0.487082 3.65625,1.455377 0.773437,0.97123 1.160156,2.227079 1.160156,3.767549 0,2.083302 -0.606445,3.961208 -1.816406,5.633718 -1.204102,1.675444 -2.759766,2.511699 -4.664063,2.511699 -1.640625,0 -2.871094,-0.498818 -3.691406,-1.502324 -0.820313,-1.009375 -1.230469,-2.300435 -1.230469,-3.873182 0,-1.907248 0.615235,-3.720601 1.851563,-5.43419 1.271484,-1.704787 2.850586,-2.558647 4.734375,-2.558647 z M 116.84494,-1.1736913e-4 125.38791,-48.203617 h 21.01172 l -1.16016,6.38488 c 2.17969,-2.88728 4.38281,-4.923635 6.60937,-6.114931 2.22657,-1.188363 4.99805,-1.784011 8.32032,-1.784011 5.09179,0 8.83593,1.710655 11.22656,5.129031 2.39648,3.42131 3.59766,7.64073 3.59766,12.664128 0,2.112645 -0.19922,4.210618 -0.59766,6.290986 L 169.66134,-1.1736913e-4 H 147.10275 L 151.52072,-24.330737 c 0.26367,-0.968295 0.39844,-1.989407 0.39844,-3.063334 0,-2.878478 -0.99024,-4.319184 -2.96485,-4.319184 -1.50879,0 -2.70703,0.669004 -3.59765,2.007012 -0.88477,1.338008 -1.59375,3.518139 -2.13282,6.53746 l -4.32421,23.16866563087 z m 0,0"
       style="fill:#a6a8ac;fill-opacity:1;fill-rule:nonzero;stroke:none"
       aria-label="dan"
       transform="matrix(1.3333333,0,0,1.33127,1645.9174,217.84)" /><path
       id="path8"
       d="m 0,0 c -1.771,-2.175 -3.104,-4.617 -4.474,-7.025 -3.497,-6.15 -6.304,-12.603 -8.852,-19.165 -0.125,-0.322 -0.271,-0.637 -0.407,-0.955 -1.744,-4.094 -3.17,-8.299 -4.715,-12.463 -1.57,-4.369 -3.074,-8.758 -6.141,-12.45 -3.901,-4.698 -8.989,-7.714 -14.72,-9.856 -1.266,-0.473 -2.519,-0.981 -3.786,-1.457 -0.295,-0.111 -0.617,-0.219 -0.926,-0.22 -4.292,-0.014 -8.584,-0.01 -13.07,-0.01 2.355,2.415 4.091,5.095 6.077,7.593 4.552,5.726 9.628,10.943 15.716,15.187 0.694,0.485 1.419,0.93 2.13,1.394 0.202,0.132 0.494,0.219 0.448,0.516 -0.044,0.287 -0.346,0.313 -0.573,0.396 -1.59,0.582 -3.229,0.854 -4.936,0.839 -1.714,-0.015 -3.431,-0.116 -5.139,0.197 -0.914,0.167 -0.989,0.457 -0.538,1.227 4.125,7.045 9.637,13.007 15.572,18.639 2.78,2.638 5.593,5.244 8.387,7.87 0.221,0.208 0.5,0.392 0.524,0.744 -0.291,0.167 -0.482,-0.066 -0.671,-0.178 -12.576,-7.502 -24.456,-15.867 -34.797,-26.136 -1.894,-1.88 -3.747,-3.799 -5.615,-5.704 -0.631,-0.644 -0.982,-1.378 -0.584,-2.259 0.424,-0.936 1.223,-1.333 2.25,-1.253 0.818,0.063 1.632,0.186 2.442,0.318 0.604,0.098 1.21,0.184 1.813,0.082 1.104,-0.186 1.727,-1.217 1.047,-1.969 -2.078,-2.297 -2.715,-5.308 -4.353,-7.81 -0.514,-0.787 -1.004,-1.596 -1.587,-2.335 -2.149,-2.724 -4.477,-2.985 -7.291,-0.867 -1.156,0.869 -1.983,1.977 -2.605,3.241 -0.962,2.188 -1.169,4.515 -1.281,6.845 -0.117,2.431 -0.019,4.858 0.459,7.257 0.508,2.522 1.401,4.919 2.56,7.228 3.255,6.338 8.015,11.458 13.756,15.779 6.896,5.191 14.589,8.925 22.862,11.584 2.237,0.719 4.492,1.385 6.738,2.075 4.418,1.226 8.895,2.196 13.417,2.987 2.944,0.444 5.901,0.789 8.845,1.231 0.666,0.1 1.339,0.181 2.018,0.126 z"
       style="fill:#324496;fill-opacity:1;fill-rule:nonzero;stroke:none"
       transform="matrix(1.3333333,0,0,-1.3333333,1682.4188,43.288667)" /></g></svg>
